<svg width="30" height="30" viewBox="0 0 30 30" fill="none" xmlns="http://www.w3.org/2000/svg">
<rect width="30" height="30" rx="4" fill="#FFE1C9"/>
<g clip-path="url(#clip0_3917_22353)">
<path fill-rule="evenodd" clip-rule="evenodd" d="M6.96875 6.625H24.0312L24.6875 7.28125V14.5039C24.2811 14.1989 23.8406 13.9421 23.375 13.7387V7.9375H7.625V19.75H14.1875C14.1875 21.1699 14.648 22.5516 15.5 23.6875H10.25V22.375H14.1875V21.0625H6.96875L6.3125 20.4062V7.28125L6.96875 6.625Z" fill="#8C4306"/>
<path fill-rule="evenodd" clip-rule="evenodd" d="M17.8337 15.3847C18.4069 14.9974 19.051 14.7272 19.7289 14.5896C20.4068 14.452 21.1053 14.4498 21.7841 14.583C22.4629 14.7163 23.1087 14.9823 23.6843 15.3659C24.26 15.7495 24.7541 16.2431 25.1384 16.8183C25.5227 17.3935 25.7895 18.039 25.9235 18.7177C26.0575 19.3963 26.0561 20.0948 25.9193 20.7729C25.7825 21.4509 25.5131 22.0953 25.1265 22.669C24.7398 23.2426 24.2437 23.7342 23.6665 24.1154C22.5086 24.8802 21.0951 25.1555 19.7349 24.8811C18.3746 24.6067 17.1784 23.805 16.4075 22.6512C15.6367 21.4973 15.354 20.0853 15.6213 18.7236C15.8885 17.362 16.6839 16.1615 17.8337 15.3847ZM20.6293 21.934L23.7623 17.7577L22.7123 16.9702L19.9862 20.6045L18.2786 19.2382L17.4583 20.2619L19.6948 22.0522L20.6306 21.934H20.6293Z" fill="#8C4306"/>
</g>
<defs>
<clipPath id="clip0_3917_22353">
<rect width="21" height="21" fill="white" transform="translate(5 4)"/>
</clipPath>
</defs>
</svg>
