<svg width="30" height="30" viewBox="0 0 30 30" fill="none" xmlns="http://www.w3.org/2000/svg">
<rect width="30" height="30" rx="4" fill="#F2F2F2"/>
<path d="M7.5835 6.58337H14.7085V13.7084H7.5835V6.58337ZM9.16683 8.16671V12.125H13.1252V8.16671H9.16683ZM19.8543 8.16671C19.3294 8.16671 18.826 8.37523 18.4548 8.74639C18.0837 9.11756 17.8752 9.62097 17.8752 10.1459C17.8752 10.6708 18.0837 11.1742 18.4548 11.5454C18.826 11.9165 19.3294 12.125 19.8543 12.125C20.3792 12.125 20.8826 11.9165 21.2538 11.5454C21.625 11.1742 21.8335 10.6708 21.8335 10.1459C21.8335 9.62097 21.625 9.11756 21.2538 8.74639C20.8826 8.37523 20.3792 8.16671 19.8543 8.16671ZM16.2918 10.1459C16.2918 9.67804 16.384 9.21479 16.563 8.78256C16.742 8.35034 17.0045 7.95761 17.3353 7.62681C17.6661 7.296 18.0588 7.03359 18.491 6.85455C18.9232 6.67552 19.3865 6.58337 19.8543 6.58337C20.3222 6.58337 20.7854 6.67552 21.2176 6.85455C21.6499 7.03359 22.0426 7.296 22.3734 7.62681C22.7042 7.95761 22.9666 8.35034 23.1456 8.78256C23.3247 9.21479 23.4168 9.67804 23.4168 10.1459C23.4168 11.0907 23.0415 11.9968 22.3734 12.6649C21.7053 13.333 20.7992 13.7084 19.8543 13.7084C18.9095 13.7084 18.0034 13.333 17.3353 12.6649C16.6672 11.9968 16.2918 11.0907 16.2918 10.1459ZM7.5835 15.2917H14.7085V22.4167H7.5835V15.2917ZM9.16683 16.875V20.8334H13.1252V16.875H9.16683ZM16.2918 15.2917H23.4168V22.4167H16.2918V15.2917ZM17.8752 16.875V20.8334H21.8335V16.875H17.8752Z" fill="#093FB3"/>
</svg>
