<svg width="22" height="22" viewBox="0 0 22 22" fill="none" xmlns="http://www.w3.org/2000/svg">
<path fill-rule="evenodd" clip-rule="evenodd" d="M10.9972 0H11.0028C17.0679 0 22 4.93488 22 11C22 17.0651 17.0679 22 11.0028 22C8.76562 22 6.69075 21.3345 4.95138 20.1823L0.72325 21.5339L2.09413 17.4474C0.7755 15.6365 0 13.4062 0 11C0 4.9335 4.93213 0 10.9972 0ZM7.3996 15.5805C7.4876 15.6685 7.62938 15.7125 7.82494 15.7125H12.1076C12.8409 15.7125 13.4569 15.5854 13.9556 15.3311C14.4543 15.0769 14.8258 14.7347 15.0703 14.3045C15.3245 13.8645 15.4516 13.3707 15.4516 12.8231C15.4516 11.64 14.9089 10.8774 13.8236 10.5351C14.244 10.3591 14.5716 10.0854 14.8063 9.7138C15.0409 9.34224 15.1583 8.9218 15.1583 8.45246C15.1583 7.62135 14.8943 6.96135 14.3663 6.47246C13.848 5.98357 13.0805 5.73913 12.0636 5.73913H7.82494C7.62938 5.73913 7.4876 5.78313 7.3996 5.87113C7.32138 5.95913 7.28227 6.09602 7.28227 6.2818V15.1845C7.28227 15.3605 7.32138 15.4925 7.3996 15.5805ZM12.8996 9.5378C12.6454 9.78224 12.2787 9.90446 11.7996 9.90446H9.1596V7.1618H11.7849C12.3129 7.1618 12.6943 7.26935 12.9289 7.48446C13.1734 7.6898 13.2956 8.03202 13.2956 8.51113C13.2956 8.95113 13.1636 9.29335 12.8996 9.5378ZM13.2076 13.8791C12.9534 14.1529 12.5574 14.2898 12.0196 14.2898H9.1596V11.2538H11.8436C12.3912 11.2538 12.8165 11.3858 13.1196 11.6498C13.4325 11.904 13.5889 12.2854 13.5889 12.7938C13.5889 13.2338 13.4618 13.5956 13.2076 13.8791Z" fill="#AEAAAB"/>
</svg>
