<svg width="30" height="30" viewBox="0 0 30 30" fill="none" xmlns="http://www.w3.org/2000/svg">
<rect width="30" height="30" rx="4" fill="#F3FD96"/>
<mask id="mask0_3917_22412" style="mask-type:alpha" maskUnits="userSpaceOnUse" x="5" y="5" width="20" height="20">
<rect x="5" y="5" width="20" height="20" fill="#D9D9D9"/>
</mask>
<g mask="url(#mask0_3917_22412)">
<path d="M17.0417 23.3333C16.8056 23.3333 16.6076 23.2534 16.4479 23.0937C16.2882 22.934 16.2083 22.7361 16.2083 22.5C16.2083 22.2638 16.2882 22.0659 16.4479 21.9062C16.6076 21.7465 16.8056 21.6666 17.0417 21.6666H19.3958L17.4792 20.3125C17.2847 20.1736 17.1701 19.9965 17.1354 19.7812C17.1007 19.5659 17.1458 19.3611 17.2708 19.1666C17.3958 18.9722 17.5694 18.8576 17.7917 18.8229C18.0139 18.7882 18.2222 18.8333 18.4167 18.9583L20.3542 20.2916L19.5417 18.0833C19.4583 17.875 19.4653 17.6666 19.5625 17.4583C19.6597 17.25 19.8194 17.1041 20.0417 17.0208C20.2639 16.9375 20.4792 16.9444 20.6875 17.0416C20.8958 17.1388 21.0417 17.2986 21.125 17.5208L21.9167 19.7291L22.5417 17.4583C22.6111 17.2361 22.7396 17.0659 22.9271 16.9479C23.1146 16.8298 23.3194 16.8055 23.5417 16.875C23.7639 16.9444 23.9375 17.0729 24.0625 17.2604C24.1875 17.4479 24.2153 17.6527 24.1458 17.875L22.6875 23.3333H17.0417ZM9.16667 21.6666C8.70833 21.6666 8.31597 21.5034 7.98958 21.177C7.66319 20.8507 7.5 20.4583 7.5 20V9.99996C7.5 9.54163 7.66319 9.14926 7.98958 8.82288C8.31597 8.49649 8.70833 8.33329 9.16667 8.33329H10V6.66663H11.6667V8.33329H16.6667V6.66663H18.3333V8.33329H19.1667C19.625 8.33329 20.0174 8.49649 20.3438 8.82288C20.6701 9.14926 20.8333 9.54163 20.8333 9.99996V15.0833C20.5556 15.0416 20.2778 15.0208 20 15.0208C19.7222 15.0208 19.4444 15.0416 19.1667 15.0833V13.3333H9.16667V20H15C15 20.2777 15.0208 20.5555 15.0625 20.8333C15.1042 21.1111 15.1806 21.3888 15.2917 21.6666H9.16667ZM9.16667 11.6666H19.1667V9.99996H9.16667V11.6666Z" fill="#818E02"/>
</g>
</svg>
