<svg width="30" height="30" viewBox="0 0 30 30" fill="none" xmlns="http://www.w3.org/2000/svg">
<rect width="30" height="30" rx="4" fill="#FFE1C9"/>
<mask id="mask0_3917_22372" style="mask-type:alpha" maskUnits="userSpaceOnUse" x="5" y="4" width="21" height="21">
<rect x="5" y="4" width="21" height="21" fill="#D9D9D9"/>
</mask>
<g mask="url(#mask0_3917_22372)">
<path d="M17.25 23.25V21.5H20.75V23.25H17.25ZM12 23.25V21.5H15.5V23.25H12ZM8.5 12.75H6.75V9.25H8.5V12.75ZM8.5 18H6.75V14.5H8.5V18ZM10.25 23.25H8.5C8.01875 23.25 7.60677 23.0786 7.26406 22.7359C6.92135 22.3932 6.75 21.9813 6.75 21.5V19.75H8.5V21.5H10.25V23.25ZM15.4125 15.8125L17.25 13.975L19.0875 15.8125L20.3125 14.5875L18.475 12.75L20.3125 10.9125L19.0875 9.6875L17.25 11.525L15.4125 9.6875L14.1875 10.9125L16.025 12.75L14.1875 14.5875L15.4125 15.8125ZM12 19.75C11.5188 19.75 11.1068 19.5786 10.7641 19.2359C10.4214 18.8932 10.25 18.4812 10.25 18V7.5C10.25 7.01875 10.4214 6.60677 10.7641 6.26406C11.1068 5.92135 11.5188 5.75 12 5.75H22.5C22.9813 5.75 23.3932 5.92135 23.7359 6.26406C24.0786 6.60677 24.25 7.01875 24.25 7.5V18C24.25 18.4812 24.0786 18.8932 23.7359 19.2359C23.3932 19.5786 22.9813 19.75 22.5 19.75H12ZM12 18H22.5V7.5H12V18Z" fill="#8C4306"/>
</g>
</svg>
