<svg width="16" height="16" viewBox="0 0 16 16" fill="none" xmlns="http://www.w3.org/2000/svg">
<mask id="path-1-inside-1_3917_22289" fill="white">
<path d="M10 4V5H13.293L9 9.293L6.8535 7.1465C6.75974 7.05276 6.63258 7.00011 6.5 7.00011C6.36742 7.00011 6.24026 7.05276 6.1465 7.1465L1 12.293L1.707 13L6.5 8.207L8.6465 10.3535C8.74026 10.4472 8.86742 10.4999 9 10.4999C9.13258 10.4999 9.25974 10.4472 9.3535 10.3535L14 5.707V9H15V4H10Z"/>
</mask>
<path d="M10 4V5H13.293L9 9.293L6.8535 7.1465C6.75974 7.05276 6.63258 7.00011 6.5 7.00011C6.36742 7.00011 6.24026 7.05276 6.1465 7.1465L1 12.293L1.707 13L6.5 8.207L8.6465 10.3535C8.74026 10.4472 8.86742 10.4999 9 10.4999C9.13258 10.4999 9.25974 10.4472 9.3535 10.3535L14 5.707V9H15V4H10Z" fill="#093FB3" fill-opacity="0.5"/>
<path d="M10 4V2H8V4H10ZM10 5H8V7H10V5ZM13.293 5L14.7072 6.41421L18.1214 3H13.293V5ZM9 9.293L7.58579 10.7072L9 12.1214L10.4142 10.7072L9 9.293ZM6.8535 7.1465L8.26771 5.73229L8.2675 5.73207L6.8535 7.1465ZM6.1465 7.1465L4.7325 5.73207L4.73229 5.73229L6.1465 7.1465ZM1 12.293L-0.414214 10.8788L-1.82843 12.293L-0.414213 13.7072L1 12.293ZM1.707 13L0.292787 14.4142L1.707 15.8284L3.12121 14.4142L1.707 13ZM6.5 8.207L7.91421 6.79279L6.5 5.37857L5.08579 6.79279L6.5 8.207ZM8.6465 10.3535L7.23229 11.7677L7.2325 11.7679L8.6465 10.3535ZM9.3535 10.3535L10.7675 11.7679L10.7677 11.7677L9.3535 10.3535ZM14 5.707H16V0.878572L12.5858 4.29279L14 5.707ZM14 9H12V11H14V9ZM15 9V11H17V9H15ZM15 4H17V2H15V4ZM8 4V5H12V4H8ZM10 7H13.293V3H10V7ZM11.8788 3.58579L7.58579 7.87879L10.4142 10.7072L14.7072 6.41421L11.8788 3.58579ZM10.4142 7.87879L8.26771 5.73229L5.43929 8.56071L7.58579 10.7072L10.4142 7.87879ZM8.2675 5.73207C7.79868 5.2634 7.16291 5.00011 6.5 5.00011V9.00011C6.10225 9.00011 5.72079 8.84213 5.4395 8.56093L8.2675 5.73207ZM6.5 5.00011C5.83709 5.00011 5.20132 5.2634 4.7325 5.73207L7.5605 8.56093C7.27921 8.84213 6.89775 9.00011 6.5 9.00011V5.00011ZM4.73229 5.73229L-0.414214 10.8788L2.41421 13.7072L7.56071 8.56071L4.73229 5.73229ZM-0.414213 13.7072L0.292787 14.4142L3.12121 11.5858L2.41421 10.8788L-0.414213 13.7072ZM3.12121 14.4142L7.91421 9.62121L5.08579 6.79279L0.292786 11.5858L3.12121 14.4142ZM5.08579 9.62121L7.23229 11.7677L10.0607 8.93929L7.91421 6.79279L5.08579 9.62121ZM7.2325 11.7679C7.70132 12.2366 8.3371 12.4999 9 12.4999V8.49989C9.39774 8.49989 9.7792 8.65786 10.0605 8.93907L7.2325 11.7679ZM9 12.4999C9.6629 12.4999 10.2987 12.2366 10.7675 11.7679L7.9395 8.93907C8.2208 8.65786 8.60226 8.49989 9 8.49989V12.4999ZM10.7677 11.7677L15.4142 7.12121L12.5858 4.29279L7.93929 8.93929L10.7677 11.7677ZM12 5.707V9H16V5.707H12ZM14 11H15V7H14V11ZM17 9V4H13V9H17ZM15 2H10V6H15V2Z" fill="#093FB3" fill-opacity="0.5" mask="url(#path-1-inside-1_3917_22289)"/>
</svg>
