<svg width="12" height="8" viewBox="0 0 12 8" fill="none" xmlns="http://www.w3.org/2000/svg">
<mask id="path-1-inside-1_3917_22313" fill="white">
<path d="M7.71429 0V0.888889H10.5369L6.85714 4.70489L5.01729 2.79689C4.93692 2.71357 4.82793 2.66676 4.71429 2.66676C4.60064 2.66676 4.49165 2.71357 4.41129 2.79689L0 7.37156L0.606 8L4.71429 3.73956L6.55414 5.64756C6.63451 5.73088 6.7435 5.77768 6.85714 5.77768C6.97078 5.77768 7.07977 5.73088 7.16014 5.64756L11.1429 1.51733V4.44444H12V0H7.71429Z"/>
</mask>
<path d="M7.71429 0V0.888889H10.5369L6.85714 4.70489L5.01729 2.79689C4.93692 2.71357 4.82793 2.66676 4.71429 2.66676C4.60064 2.66676 4.49165 2.71357 4.41129 2.79689L0 7.37156L0.606 8L4.71429 3.73956L6.55414 5.64756C6.63451 5.73088 6.7435 5.77768 6.85714 5.77768C6.97078 5.77768 7.07977 5.73088 7.16014 5.64756L11.1429 1.51733V4.44444H12V0H7.71429Z" fill="#1BD211" fill-opacity="0.98"/>
<path d="M7.71429 0V-2H5.71429V0H7.71429ZM7.71429 0.888889H5.71429V2.88889H7.71429V0.888889ZM10.5369 0.888889L11.9765 2.27716L15.2438 -1.11111L10.5369 -1.11111V0.888889ZM6.85714 4.70489L5.41745 6.09316L6.85714 7.58617L8.29683 6.09316L6.85714 4.70489ZM5.01729 2.79689L6.45697 1.40862L6.45676 1.4084L5.01729 2.79689ZM4.41129 2.79689L2.97181 1.4084L2.9716 1.40862L4.41129 2.79689ZM0 7.37156L-1.43969 5.98328L-2.77838 7.37156L-1.43969 8.75983L0 7.37156ZM0.606 8L-0.833688 9.38827L0.606 10.8813L2.04569 9.38827L0.606 8ZM4.71429 3.73956L6.15397 2.35128L4.71429 0.858274L3.2746 2.35128L4.71429 3.73956ZM6.55414 5.64756L5.11445 7.03583L5.11466 7.03604L6.55414 5.64756ZM7.16014 5.64756L8.59962 7.03604L8.59983 7.03583L7.16014 5.64756ZM11.1429 1.51733H13.1429V-3.43802L9.70317 0.129062L11.1429 1.51733ZM11.1429 4.44444H9.14286V6.44444H11.1429V4.44444ZM12 4.44444V6.44444H14V4.44444H12ZM12 0H14V-2H12V0ZM5.71429 0V0.888889H9.71429V0H5.71429ZM7.71429 2.88889H10.5369V-1.11111H7.71429V2.88889ZM9.09717 -0.499382L5.41745 3.31662L8.29683 6.09316L11.9765 2.27716L9.09717 -0.499382ZM8.29683 3.31662L6.45697 1.40862L3.5776 4.18516L5.41745 6.09316L8.29683 3.31662ZM6.45676 1.4084C6.00741 0.942542 5.38221 0.666762 4.71429 0.666762V4.66676C4.27365 4.66676 3.86642 4.48459 3.57781 4.18538L6.45676 1.4084ZM4.71429 0.666762C4.04637 0.666762 3.42116 0.942542 2.97181 1.4084L5.85076 4.18538C5.56215 4.48459 5.15492 4.66676 4.71429 4.66676V0.666762ZM2.9716 1.40862L-1.43969 5.98328L1.43969 8.75983L5.85097 4.18516L2.9716 1.40862ZM-1.43969 8.75983L-0.833688 9.38827L2.04569 6.61173L1.43969 5.98328L-1.43969 8.75983ZM2.04569 9.38827L6.15397 5.12783L3.2746 2.35128L-0.833689 6.61173L2.04569 9.38827ZM3.2746 5.12783L5.11445 7.03583L7.99383 4.25928L6.15397 2.35128L3.2746 5.12783ZM5.11466 7.03604C5.56402 7.50191 6.18923 7.77768 6.85714 7.77768V3.77768C7.29777 3.77768 7.705 3.95984 7.99362 4.25907L5.11466 7.03604ZM6.85714 7.77768C7.52506 7.77768 8.15026 7.50191 8.59962 7.03604L5.72066 4.25907C6.00929 3.95984 6.41651 3.77768 6.85714 3.77768V7.77768ZM8.59983 7.03583L12.5825 2.9056L9.70317 0.129062L5.72045 4.25928L8.59983 7.03583ZM9.14286 1.51733V4.44444H13.1429V1.51733H9.14286ZM11.1429 6.44444H12V2.44444H11.1429V6.44444ZM14 4.44444V0H10V4.44444H14ZM12 -2H7.71429V2H12V-2Z" fill="#1BD211" fill-opacity="0.98" mask="url(#path-1-inside-1_3917_22313)"/>
</svg>
