<svg width="25" height="25" viewBox="0 0 25 25" fill="none" xmlns="http://www.w3.org/2000/svg">
<path d="M6.5 10.2266V8.22656C6.5 4.91656 7.5 2.22656 12.5 2.22656C17.5 2.22656 18.5 4.91656 18.5 8.22656V10.2266" stroke="#87898E" stroke-width="1.5" stroke-linecap="round" stroke-linejoin="round"/>
<path d="M12.5 18.7266C13.8807 18.7266 15 17.6073 15 16.2266C15 14.8459 13.8807 13.7266 12.5 13.7266C11.1193 13.7266 10 14.8459 10 16.2266C10 17.6073 11.1193 18.7266 12.5 18.7266Z" stroke="#87898E" stroke-width="1.5" stroke-linecap="round" stroke-linejoin="round"/>
<path d="M17.5 22.2266H7.5C3.5 22.2266 2.5 21.2266 2.5 17.2266V15.2266C2.5 11.2266 3.5 10.2266 7.5 10.2266H17.5C21.5 10.2266 22.5 11.2266 22.5 15.2266V17.2266C22.5 21.2266 21.5 22.2266 17.5 22.2266Z" stroke="#87898E" stroke-width="1.5" stroke-linecap="round" stroke-linejoin="round"/>
</svg>
