<svg width="30" height="30" viewBox="0 0 30 30" fill="none" xmlns="http://www.w3.org/2000/svg">
<rect width="30" height="30" rx="4" fill="#F2F2F2"/>
<path d="M7.05556 16.5364V18.5255C7.05556 18.6942 7.12311 18.8493 7.25822 18.9909C7.39333 19.1324 7.54217 19.2028 7.70472 19.2021H23.2953C23.4571 19.2021 23.606 19.1317 23.7418 18.9909C23.8776 18.85 23.9451 18.6945 23.9444 18.5244V16.5364H7.05556ZM7.70472 6H23.2953C23.7668 6 24.1689 6.17309 24.5018 6.51928C24.8339 6.86547 25 7.285 25 7.77788V18.5255C25 19.0169 24.8339 19.4361 24.5018 19.783C24.1696 20.1292 23.7675 20.3023 23.2953 20.3023H18.5854V25L15.5 23.3904L12.4146 24.9978V20.3023H7.70578C7.23289 20.3023 6.83037 20.1292 6.49822 19.783C6.16607 19.4368 6 19.0176 6 18.5255V7.77678C6 7.28537 6.16607 6.8662 6.49822 6.51928C6.83037 6.17309 7.23289 6 7.70578 6M7.05556 14.1666H23.9444V7.77788C23.9444 7.60845 23.8769 7.45296 23.7418 7.31141C23.6067 7.16985 23.4578 7.09944 23.2953 7.10017H7.70472C7.54287 7.10017 7.39404 7.17058 7.25822 7.31141C7.12241 7.45223 7.05485 7.60735 7.05556 7.77678V14.1666ZM7.05556 18.5255V7.10017H7.70578C7.54322 7.10017 7.39404 7.17058 7.25822 7.31141C7.12241 7.45223 7.05485 7.60735 7.05556 7.77678V18.5255ZM7.05556 18.5255C7.05556 18.6942 7.12311 18.8493 7.25822 18.9909C7.39333 19.1324 7.54217 19.2028 7.70472 19.2021H7.05556V18.5255Z" fill="#093FB3"/>
</svg>
