<svg width="30" height="30" viewBox="0 0 30 30" fill="none" xmlns="http://www.w3.org/2000/svg">
<rect width="30" height="30" rx="4" fill="#F3FD96"/>
<mask id="mask0_3917_22422" style="mask-type:alpha" maskUnits="userSpaceOnUse" x="5" y="5" width="20" height="20">
<rect x="5" y="5" width="19.0476" height="20" fill="#D9D9D9"/>
</mask>
<g mask="url(#mask0_3917_22422)">
<path d="M8.17519 22.5C7.73868 22.5 7.36501 22.3368 7.05416 22.0104C6.74331 21.684 6.58789 21.2917 6.58789 20.8333V10.8333H8.17519V20.8333H20.08V22.5H8.17519ZM11.3498 19.1667C10.9133 19.1667 10.5396 19.0035 10.2288 18.6771C9.91792 18.3507 9.76249 17.9583 9.76249 17.5V7.5H23.2546V17.5C23.2546 17.9583 23.0991 18.3507 22.7883 18.6771C22.4774 19.0035 22.1038 19.1667 21.6673 19.1667H11.3498ZM11.3498 17.5H21.6673V9.16667H11.3498V17.5ZM12.9371 15H16.1117V10.8333H12.9371V15ZM16.9054 15H20.08V13.3333H16.9054V15ZM16.9054 12.5H20.08V10.8333H16.9054V12.5Z" fill="#818E02"/>
</g>
</svg>
