<svg width="30" height="30" viewBox="0 0 30 30" fill="none" xmlns="http://www.w3.org/2000/svg">
<rect width="30" height="30" rx="4" fill="#F3FD96"/>
<path d="M11.0376 7.01089C11.1364 6.8855 11.1851 6.72391 11.1731 6.56082C11.1611 6.39772 11.0895 6.24613 10.9736 6.13857C10.8577 6.03101 10.7067 5.97608 10.5531 5.98555C10.3996 5.99502 10.2556 6.06814 10.1522 6.18923L9.1398 7.42256C8.56574 8.1222 8.24122 9.0142 8.22301 9.94256L8.17835 12.2084C8.17675 12.2905 8.19037 12.3721 8.21844 12.4486C8.2465 12.525 8.28845 12.5949 8.34189 12.6541C8.39533 12.7134 8.45922 12.7608 8.52992 12.7938C8.60061 12.8268 8.67671 12.8446 8.75389 12.8463C8.83107 12.848 8.9078 12.8335 8.97971 12.8037C9.05162 12.7738 9.1173 12.7292 9.173 12.6724C9.2287 12.6155 9.27333 12.5476 9.30434 12.4724C9.33535 12.3972 9.35213 12.3163 9.35372 12.2342L9.3976 9.96922C9.41017 9.334 9.63234 8.72369 10.0253 8.24506L11.0376 7.01089Z" fill="#818E02"/>
<path fill-rule="evenodd" clip-rule="evenodd" d="M10.887 11.4166C10.9396 10.5251 11.3097 9.68836 11.922 9.07682C12.5343 8.46529 13.3427 8.1249 14.1827 8.12496H14.6192V7.49996C14.6192 7.27895 14.7017 7.06698 14.8487 6.9107C14.9956 6.75442 15.1949 6.66663 15.4027 6.66663C15.6106 6.66663 15.8099 6.75442 15.9568 6.9107C16.1038 7.06698 16.1863 7.27895 16.1863 7.49996V8.12496H16.6228C17.4628 8.1249 18.2712 8.46529 18.8835 9.07682C19.4958 9.68836 19.8659 10.5251 19.9185 11.4166L20.0917 14.3616C20.1586 15.4843 20.5131 16.5661 21.1166 17.49C21.2415 17.6808 21.3178 17.9029 21.3381 18.1344C21.3584 18.3659 21.322 18.5991 21.2325 18.8113C21.143 19.0234 21.0033 19.2073 20.8272 19.3451C20.651 19.4829 20.4444 19.5698 20.2273 19.5975L17.5576 19.9375V20.8333C17.5576 21.4411 17.3306 22.024 16.9265 22.4537C16.5223 22.8835 15.9742 23.125 15.4027 23.125C14.8312 23.125 14.2831 22.8835 13.879 22.4537C13.4749 22.024 13.2479 21.4411 13.2479 20.8333V19.9375L10.5782 19.5966C10.3612 19.5689 10.1547 19.4819 9.97867 19.3442C9.80262 19.2065 9.66307 19.0227 9.57356 18.8107C9.48405 18.5986 9.44763 18.3656 9.46783 18.1342C9.48803 17.9028 9.56418 17.6808 9.68886 17.49C10.2924 16.5661 10.6468 15.4843 10.7138 14.3616L10.887 11.4166ZM14.1827 9.37496C13.6417 9.37489 13.121 9.5941 12.7266 9.98797C12.3323 10.3818 12.0939 10.9207 12.06 11.495L11.8876 14.44C11.807 15.7906 11.3805 17.092 10.6542 18.2033C10.6452 18.2171 10.6397 18.2332 10.6382 18.2499C10.6367 18.2666 10.6393 18.2835 10.6458 18.2989C10.6523 18.3142 10.6624 18.3275 10.6751 18.3375C10.6878 18.3475 10.7028 18.3538 10.7185 18.3558L13.6467 18.73C14.8135 18.8783 15.992 18.8783 17.1587 18.73L20.087 18.3558C20.1027 18.3538 20.1176 18.3475 20.1304 18.3375C20.1431 18.3275 20.1532 18.3142 20.1597 18.2989C20.1661 18.2835 20.1688 18.2666 20.1673 18.2499C20.1658 18.2332 20.1603 18.2171 20.1512 18.2033C19.4253 17.0919 18.999 15.7905 18.9187 14.44L18.7455 11.495C18.7116 10.9207 18.4732 10.3818 18.0788 9.98797C17.6845 9.5941 17.1638 9.37489 16.6228 9.37496H14.1827ZM15.4027 21.875C14.8621 21.875 14.4233 21.4083 14.4233 20.8333V20.2083H16.3822V20.8333C16.3822 21.4083 15.9434 21.875 15.4027 21.875Z" fill="#818E02"/>
<path d="M19.8248 6.12921C19.7074 6.23819 19.6355 6.39229 19.6249 6.55762C19.6143 6.72296 19.6659 6.88599 19.7683 7.01088L20.7807 8.24421C21.1735 8.72318 21.3954 9.3338 21.4076 9.96921L21.4522 12.2334C21.4555 12.3991 21.5205 12.5567 21.633 12.6715C21.7455 12.7863 21.8962 12.8489 22.0521 12.8455C22.2079 12.842 22.3561 12.7729 22.4641 12.6533C22.572 12.5336 22.6308 12.3733 22.6276 12.2075L22.583 9.94254C22.5648 9.01419 22.2402 8.12218 21.6662 7.42254L20.6538 6.18921C20.5513 6.06437 20.4064 5.98791 20.2509 5.97666C20.0955 5.96541 19.9422 6.02028 19.8248 6.12921Z" fill="#818E02"/>
</svg>
