<svg width="30" height="30" viewBox="0 0 30 30" fill="none" xmlns="http://www.w3.org/2000/svg">
<rect width="30" height="30" rx="4" fill="#FFE1C9"/>
<mask id="mask0_3917_22363" style="mask-type:alpha" maskUnits="userSpaceOnUse" x="5" y="4" width="21" height="21">
<rect x="5" y="4" width="21" height="21" fill="#D9D9D9"/>
</mask>
<g mask="url(#mask0_3917_22363)">
<path d="M15.5 15.375C14.7708 15.375 14.151 15.1198 13.6406 14.6094C13.1302 14.099 12.875 13.4792 12.875 12.75C12.875 12.0208 13.1302 11.401 13.6406 10.8906C14.151 10.3802 14.7708 10.125 15.5 10.125C16.2292 10.125 16.849 10.3802 17.3594 10.8906C17.8698 11.401 18.125 12.0208 18.125 12.75C18.125 13.4792 17.8698 14.099 17.3594 14.6094C16.849 15.1198 16.2292 15.375 15.5 15.375ZM10.25 24.125V17.3656C9.69583 16.7531 9.26562 16.0531 8.95938 15.2656C8.65313 14.4781 8.5 13.6396 8.5 12.75C8.5 10.7958 9.17812 9.14062 10.5344 7.78437C11.8906 6.42812 13.5458 5.75 15.5 5.75C17.4542 5.75 19.1094 6.42812 20.4656 7.78437C21.8219 9.14062 22.5 10.7958 22.5 12.75C22.5 13.6396 22.3469 14.4781 22.0406 15.2656C21.7344 16.0531 21.3042 16.7531 20.75 17.3656V24.125L15.5 22.375L10.25 24.125ZM15.5 18C16.9583 18 18.1979 17.4896 19.2188 16.4688C20.2396 15.4479 20.75 14.2083 20.75 12.75C20.75 11.2917 20.2396 10.0521 19.2188 9.03125C18.1979 8.01042 16.9583 7.5 15.5 7.5C14.0417 7.5 12.8021 8.01042 11.7812 9.03125C10.7604 10.0521 10.25 11.2917 10.25 12.75C10.25 14.2083 10.7604 15.4479 11.7812 16.4688C12.8021 17.4896 14.0417 18 15.5 18ZM12 21.5219L15.5 20.625L19 21.5219V18.8094C18.4896 19.101 17.9391 19.3307 17.3484 19.4984C16.7578 19.6661 16.1417 19.75 15.5 19.75C14.8583 19.75 14.2422 19.6661 13.6516 19.4984C13.0609 19.3307 12.5104 19.101 12 18.8094V21.5219Z" fill="#8C4306"/>
</g>
</svg>
