<svg width="30" height="30" viewBox="0 0 30 30" fill="none" xmlns="http://www.w3.org/2000/svg">
<rect width="30" height="30" rx="4" fill="#F3FD96"/>
<mask id="mask0_3917_22444" style="mask-type:alpha" maskUnits="userSpaceOnUse" x="5" y="5" width="20" height="20">
<rect x="5" y="5" width="20" height="20" fill="#D9D9D9"/>
</mask>
<g mask="url(#mask0_3917_22444)">
<path d="M12.5002 23.3333C10.6391 23.3333 9.06266 22.6875 7.771 21.3958C6.47933 20.1042 5.8335 18.5278 5.8335 16.6667H7.50016C7.50016 18.0556 7.98627 19.2361 8.9585 20.2083C9.93072 21.1806 11.1113 21.6667 12.5002 21.6667V23.3333ZM12.5002 20.4167C11.4585 20.4167 10.5731 20.0521 9.84391 19.3229C9.11475 18.5938 8.75016 17.7083 8.75016 16.6667H10.4168C10.4168 17.25 10.6182 17.7431 11.021 18.1458C11.4238 18.5486 11.9168 18.75 12.5002 18.75V20.4167ZM13.3335 17.5C12.8752 17.5 12.4828 17.3368 12.1564 17.0104C11.83 16.684 11.6668 16.2917 11.6668 15.8333V9.16667C11.6668 8.70833 11.83 8.31597 12.1564 7.98958C12.4828 7.66319 12.8752 7.5 13.3335 7.5H16.6668C17.1252 7.5 17.5175 7.66319 17.8439 7.98958C18.1703 8.31597 18.3335 8.70833 18.3335 9.16667V15.8333C18.3335 16.2917 18.1703 16.684 17.8439 17.0104C17.5175 17.3368 17.1252 17.5 16.6668 17.5H13.3335ZM13.3335 15.8333H16.6668V9.16667H13.3335V15.8333ZM17.5002 20.4167V18.75C18.0835 18.75 18.5766 18.5486 18.9793 18.1458C19.3821 17.7431 19.5835 17.25 19.5835 16.6667H21.2502C21.2502 17.7083 20.8856 18.5938 20.1564 19.3229C19.4272 20.0521 18.5418 20.4167 17.5002 20.4167ZM17.5002 23.3333V21.6667C18.8891 21.6667 20.0696 21.1806 21.0418 20.2083C22.0141 19.2361 22.5002 18.0556 22.5002 16.6667H24.1668C24.1668 18.5278 23.521 20.1042 22.2293 21.3958C20.9377 22.6875 19.3613 23.3333 17.5002 23.3333Z" fill="#818E02"/>
</g>
</svg>
