<svg width="40" height="40" viewBox="0 0 40 40" fill="none" xmlns="http://www.w3.org/2000/svg">
<rect width="40" height="40" rx="4" fill="#F2F2F2"/>
<mask id="mask0_3917_22274" style="mask-type:alpha" maskUnits="userSpaceOnUse" x="4" y="3" width="32" height="33">
<rect x="4" y="3.5" width="32" height="32" fill="#D9D9D9"/>
</mask>
<g mask="url(#mask0_3917_22274)">
<path d="M9.33268 27.5002V16.8335V17.2668V11.5002V27.5002ZM9.33268 14.1668H30.666V11.5002H9.33268V14.1668ZM19.566 30.1668H9.33268C8.59935 30.1668 7.97157 29.9057 7.44935 29.3835C6.92713 28.8613 6.66602 28.2335 6.66602 27.5002V11.5002C6.66602 10.7668 6.92713 10.1391 7.44935 9.61683C7.97157 9.09461 8.59935 8.8335 9.33268 8.8335H30.666C31.3993 8.8335 32.0271 9.09461 32.5494 9.61683C33.0716 10.1391 33.3327 10.7668 33.3327 11.5002V18.5002C32.5327 17.9446 31.666 17.5279 30.7327 17.2502C29.7994 16.9724 28.8438 16.8335 27.866 16.8335C26.666 16.8335 25.5105 17.0668 24.3993 17.5335C23.2882 18.0002 22.3105 18.6557 21.466 19.5002H9.33268V27.5002H18.766C18.8327 27.9668 18.9327 28.4224 19.066 28.8668C19.1993 29.3113 19.366 29.7446 19.566 30.1668ZM30.2327 29.3335L31.166 28.4002L28.666 25.9002V22.1668H27.3327V26.4335L30.2327 29.3335ZM28.0327 32.8335C26.166 32.8335 24.5827 32.1891 23.2827 30.9002C21.9827 29.6113 21.3327 28.0335 21.3327 26.1668C21.3327 24.3002 21.9827 22.7224 23.2827 21.4335C24.5827 20.1446 26.166 19.5002 28.0327 19.5002C29.8771 19.5002 31.4438 20.1502 32.7327 21.4502C34.0216 22.7502 34.666 24.3224 34.666 26.1668C34.666 28.0113 34.0216 29.5835 32.7327 30.8835C31.4438 32.1835 29.8771 32.8335 28.0327 32.8335Z" fill="#093FB3"/>
</g>
</svg>
