<svg width="40" height="40" viewBox="0 0 40 40" fill="none" xmlns="http://www.w3.org/2000/svg">
<rect width="40" height="40" rx="4" fill="#FBE2F5"/>
<mask id="mask0_3917_22386" style="mask-type:alpha" maskUnits="userSpaceOnUse" x="4" y="3" width="32" height="33">
<rect x="4" y="3.5" width="32" height="32" fill="#D9D9D9"/>
</mask>
<g mask="url(#mask0_3917_22386)">
<mask id="mask1_3917_22386" style="mask-type:alpha" maskUnits="userSpaceOnUse" x="8" y="6" width="25" height="25">
<rect x="8.0625" y="6.51611" width="24" height="24" fill="#D9D9D9"/>
</mask>
<g mask="url(#mask1_3917_22386)">
<path d="M14.5625 17.5161L20.0625 8.51611L25.5625 17.5161H14.5625ZM25.5625 28.5161C24.3125 28.5161 23.25 28.0786 22.375 27.2036C21.5 26.3286 21.0625 25.2661 21.0625 24.0161C21.0625 22.7661 21.5 21.7036 22.375 20.8286C23.25 19.9536 24.3125 19.5161 25.5625 19.5161C26.8125 19.5161 27.875 19.9536 28.75 20.8286C29.625 21.7036 30.0625 22.7661 30.0625 24.0161C30.0625 25.2661 29.625 26.3286 28.75 27.2036C27.875 28.0786 26.8125 28.5161 25.5625 28.5161ZM11.0625 28.0161V20.0161H19.0625V28.0161H11.0625ZM25.5625 26.5161C26.2625 26.5161 26.8542 26.2744 27.3375 25.7911C27.8208 25.3078 28.0625 24.7161 28.0625 24.0161C28.0625 23.3161 27.8208 22.7244 27.3375 22.2411C26.8542 21.7578 26.2625 21.5161 25.5625 21.5161C24.8625 21.5161 24.2708 21.7578 23.7875 22.2411C23.3042 22.7244 23.0625 23.3161 23.0625 24.0161C23.0625 24.7161 23.3042 25.3078 23.7875 25.7911C24.2708 26.2744 24.8625 26.5161 25.5625 26.5161ZM13.0625 26.0161H17.0625V22.0161H13.0625V26.0161ZM18.1125 15.5161H22.0125L20.0625 12.3661L18.1125 15.5161Z" fill="#970C76"/>
</g>
</g>
</svg>
