<svg width="40" height="40" viewBox="0 0 40 40" fill="none" xmlns="http://www.w3.org/2000/svg">
<rect width="40" height="40" rx="4" fill="#FFE1C9"/>
<mask id="mask0_3917_22342" style="mask-type:alpha" maskUnits="userSpaceOnUse" x="4" y="4" width="32" height="32">
<rect x="4" y="4" width="32" height="32" fill="#D9D9D9"/>
</mask>
<g mask="url(#mask0_3917_22342)">
<path d="M17.033 19.9999C16.233 19.9999 15.5663 19.6999 15.033 19.0999C14.4997 18.4999 14.2886 17.7999 14.3997 16.9999L14.833 13.7333C15.0108 12.4666 15.5886 11.4166 16.5663 10.5833C17.5441 9.74992 18.6886 9.33325 19.9997 9.33325C21.3108 9.33325 22.4552 9.74992 23.433 10.5833C24.4108 11.4166 24.9886 12.4666 25.1663 13.7333L25.5997 16.9999C25.7108 17.7999 25.4997 18.4999 24.9663 19.0999C24.433 19.6999 23.7663 19.9999 22.9663 19.9999H17.033ZM17.033 17.3333H22.9663L22.533 14.1333C22.4441 13.511 22.1608 12.9999 21.683 12.5999C21.2052 12.1999 20.6441 11.9999 19.9997 11.9999C19.3552 11.9999 18.7941 12.1999 18.3163 12.5999C17.8386 12.9999 17.5552 13.511 17.4663 14.1333L17.033 17.3333ZM9.33301 30.6666V26.9333C9.33301 26.1777 9.52745 25.4833 9.91634 24.8499C10.3052 24.2166 10.8219 23.7333 11.4663 23.3999C12.8441 22.711 14.2441 22.1944 15.6663 21.8499C17.0886 21.5055 18.533 21.3333 19.9997 21.3333C21.4663 21.3333 22.9108 21.5055 24.333 21.8499C25.7552 22.1944 27.1552 22.711 28.533 23.3999C29.1775 23.7333 29.6941 24.2166 30.083 24.8499C30.4719 25.4833 30.6663 26.1777 30.6663 26.9333V30.6666H9.33301ZM11.9997 27.9999H27.9997V26.9333C27.9997 26.6888 27.9386 26.4666 27.8163 26.2666C27.6941 26.0666 27.533 25.911 27.333 25.7999C26.133 25.1999 24.9219 24.7499 23.6997 24.4499C22.4775 24.1499 21.2441 23.9999 19.9997 23.9999C18.7552 23.9999 17.5219 24.1499 16.2997 24.4499C15.0775 24.7499 13.8663 25.1999 12.6663 25.7999C12.4663 25.911 12.3052 26.0666 12.183 26.2666C12.0608 26.4666 11.9997 26.6888 11.9997 26.9333V27.9999Z" fill="#8C4306"/>
</g>
</svg>
