<svg width="40" height="40" viewBox="0 0 40 40" fill="none" xmlns="http://www.w3.org/2000/svg">
<rect width="40" height="40" rx="4" fill="#FBE2F5"/>
<mask id="mask0_3917_22399" style="mask-type:alpha" maskUnits="userSpaceOnUse" x="4" y="3" width="32" height="33">
<rect x="4" y="3.5" width="32" height="32" fill="#D9D9D9"/>
</mask>
<g mask="url(#mask0_3917_22399)">
<mask id="mask1_3917_22399" style="mask-type:alpha" maskUnits="userSpaceOnUse" x="8" y="7" width="24" height="24">
<rect x="8" y="7" width="24" height="24" fill="#D9D9D9"/>
</mask>
<g mask="url(#mask1_3917_22399)">
<path d="M12 28C11.45 28 10.9792 27.8042 10.5875 27.4125C10.1958 27.0208 10 26.55 10 26V12C10 11.45 10.1958 10.9792 10.5875 10.5875C10.9792 10.1958 11.45 10 12 10H28C28.55 10 29.0208 10.1958 29.4125 10.5875C29.8042 10.9792 30 11.45 30 12V26C30 26.55 29.8042 27.0208 29.4125 27.4125C29.0208 27.8042 28.55 28 28 28H12ZM12 26H28V12H12V26ZM13 24H18V22H13V24ZM22.55 22L27.5 17.05L26.075 15.625L22.55 19.175L21.125 17.75L19.725 19.175L22.55 22ZM13 20H18V18H13V20ZM13 16H18V14H13V16Z" fill="#970C76"/>
</g>
</g>
</svg>
